# xmcd
#
# Track frame offsets:
#  150
#  10882
#  20872
#  30705
#  42012
#  51830
#  63762
#  73240
#  83500
#  94140
#  108795
#  117142
#  124577
#  133717
#  144767
#  157497
#  171007
#  182005
#  192092
#  204905
#  215902
#  226057
#  238842
#  250542
#
# Disc length: 3483 seconds
#
# Revision: 0
# Processed by: cddbd v1.5.1PL2 Copyright (c) Steve Scherf et al.
# Submitted via: Collectorz.com_Music_Collector 6.9
#
DISCID=450d9918
DTITLE=Various Artist - Doo-Bop-Jivers - Volume 09
DYEAR=1997
DGENRE=Doo-Wop
TTITLE0=Four Aces, The - Heartaches
TTITLE1=Ames Brothers, The - Don't Leave Me Know
TTITLE2=Danleers, The - My Flaming Heart
TTITLE3=Danny and The Juniors - Pony Express
TTITLE4=Jodimars, The - Cloud 99
TTITLE5=Be-Bops, The - R ' N ' R Du Samedi Soir
TTITLE6=Fontaine Brothers, The - Everybody Rock
TTITLE7=Fontaine Brothers, The - Live It Up
TTITLE8=Spaniels, The - People Will Say We're In Love
TTITLE9=Swallows, The - We Wanna Rock
TTITLE10=Jive Bombers, The - The Blues Don't Mean Anything
TTITLE11=Wilder Brothers, The - I Want You
TTITLE12=Rover Boys, The - Sixteen Teens
TTITLE13=Meadowlarks, The - Boogie Woogie Teenage
TTITLE14=Imperials, The - Bermuda Wonderful
TTITLE15=Demarco Brothers, The - Careless Love
TTITLE16=Richie and Group - Cherie
TTITLE17=Danny and The Juniors - Some Kind Of Nut
TTITLE18=Danny and The Juniors - Cha Cha Go Go
TTITLE19=Electras, The - Boo Babe
TTITLE20=Dubs, The - Just You
TTITLE21=Admirations, The - Lonely Street
TTITLE22=William, Kenny - Sugar Lump
TTITLE23=Billy and The Moonlighters - Little Indian Girl
EXTD=
EXTT0=
EXTT1=
EXTT2=
EXTT3=
EXTT4=
EXTT5=
EXTT6=
EXTT7=
EXTT8=
EXTT9=
EXTT10=
EXTT11=
EXTT12=
EXTT13=
EXTT14=
EXTT15=
EXTT16=
EXTT17=
EXTT18=
EXTT19=
EXTT20=
EXTT21=
EXTT22=
EXTT23=
PLAYORDER=
